<svg xmlns="http://www.w3.org/2000/svg" viewBox="0 0 165.51 78.06"><defs><style>.cls-1{fill:#00a4ff;}.cls-1,.cls-2{opacity:0.44;}.cls-2{fill:#e1007e;}.cls-3{fill:#bd68bc;}</style></defs><title>Ativo 5</title><g id="Camada_2" data-name="Camada 2"><g id="Camada_1-2" data-name="Camada 1"><rect class="cls-1" x="26.54" y="-2.25" width="26.14" height="61.51" rx="13.07" transform="translate(59.67 72.99) rotate(-150)"/><rect class="cls-2" x="8.84" y="-2.22" width="26.14" height="61.51" rx="13.07" transform="translate(-11.33 14.78) rotate(-30)"/><rect class="cls-1" x="65.92" width="24.24" height="24.24" rx="12.12" transform="translate(156.09 24.24) rotate(-180)"/><rect class="cls-2" x="65.92" y="12.12" width="24.24" height="44.91" rx="12.12" transform="translate(156.09 69.15) rotate(-180)"/><path class="cls-1" d="M141.3,15.88a5,5,0,0,1-7.45-1.46c-.83-1.46-2.6-3.91-5.14-3.91l-.38,0a4.38,4.38,0,0,0-3.65,2.65c-.71,2,.62,3.43,3.85,5.92a14.63,14.63,0,0,1,2.74,2.47c3,3.8,2.37,8.86-1.58,13.53a8.92,8.92,0,0,1-5.26,3c-9.44,1.61-14.59,5.64-16.76,8.46-3.41,4.24-3.09,9.61-7.11,10a4.94,4.94,0,0,1-2.91-.94,4.89,4.89,0,0,1-2-3c-.87-4.13,3.16-14,12.78-19.53a43.2,43.2,0,0,1,13.61-4.76.47.47,0,0,0,.27-.14,6.14,6.14,0,0,0,.41-.64c-7-5-9.74-11.42-7.5-17.74A14.4,14.4,0,0,1,127.44.56c.42,0,.85-.06,1.27-.06,5.49,0,10.49,3.22,13.75,8.83A5.1,5.1,0,0,1,141.3,15.88Z"/><path class="cls-2" d="M138.31,28.32a5.84,5.84,0,0,0-.73-.05,5,5,0,0,0-5,4.76A5.07,5.07,0,0,0,137,38.24c9.73,1.46,14.43,5.06,16.7,8.33H100.56a5,5,0,0,0,0,10h59.57a5.44,5.44,0,0,0,5.35-5.33C165.84,46.39,161.63,31.75,138.31,28.32Z"/><path class="cls-3" d="M9.23,66.77,4.89,78.06H4.5L.17,66.77H.56L4.68,77.51h0L8.83,66.77Z"/><path class="cls-3" d="M14.41,66.77h.36V78.06h-.36Z"/><path class="cls-3" d="M23.58,67.13h-3.7v-.36h7.81v.36H23.94V78.06h-.36Z"/><path class="cls-3" d="M39.54,78.06l-3.49-4.84h-3v4.84h-.36V66.77h3.69A4.71,4.71,0,0,1,38,67a2.75,2.75,0,0,1,1.1.68,3,3,0,0,1,.62,1,3.87,3.87,0,0,1,.2,1.26,3.77,3.77,0,0,1-.24,1.4,2.61,2.61,0,0,1-.7,1,3.15,3.15,0,0,1-1.06.6,5.05,5.05,0,0,1-1.37.26h0L40,78.06Zm-6.49-5.21h3a5.35,5.35,0,0,0,1.32-.14,3.15,3.15,0,0,0,1-.4,2.41,2.41,0,0,0,.65-.62,2.76,2.76,0,0,0,.37-.8A4,4,0,0,0,39.5,70a2.62,2.62,0,0,0-.82-2.11,3.4,3.4,0,0,0-2.28-.71H33.05Z"/><path class="cls-3" d="M45.7,66.77h.36V78.06H45.7Z"/><path class="cls-3" d="M60.9,66.77V78.06h-.35l-8-10.64h0V78.06h-.36V66.77h.34l8,10.65h0V66.77Z"/><path class="cls-3" d="M66.94,66.77h6.55v.36H67.3v5.09h5.2v.37H67.3V77.7h6.52v.36H66.94Z"/><path class="cls-3" d="M80.21,66.77h.36V78.06h-.36Z"/><path class="cls-3" d="M95.41,66.77V78.06h-.35l-8-10.64h0V78.06H86.7V66.77H87l8,10.65h0V66.77Z"/><path class="cls-3" d="M101.45,66.77h6.85v.36h-6.49v5.13h5.61v.37h-5.61v5.43h-.36Z"/><path class="cls-3" d="M119,74.71h-5.84l-1.29,3.35h-.41l4.38-11.29h.46l4.42,11.29h-.4Zm-.14-.36-2.78-7.13h0l-2.76,7.13Z"/><path class="cls-3" d="M134.46,66.77V78.06h-.36l-8-10.64h0V78.06h-.37V66.77h.35l8,10.65h0V66.77Z"/><path class="cls-3" d="M143.17,67.13h-3.7v-.36h7.81v.36h-3.74V78.06h-.37Z"/><path class="cls-3" d="M152.39,66.77h.36V78.06h-.36Z"/><path class="cls-3" d="M158.88,66.77h.36V77.69h6.27v.37h-6.63Z"/></g></g></svg>